<svg width="128" height="128" viewBox="0 0 128 128" fill="none" xmlns="http://www.w3.org/2000/svg">
<circle cx="64" cy="64" r="64" fill="#1F2C41"/>
<path d="M54.5707 53.2053C60.3733 64.64 69.76 95.744 57.5573 108.8C56.704 64.8107 34.1333 38.4853 34.1333 38.4853L39.936 25.6C40.4821 27.5115 46.2507 40.0213 56.576 40.3627C59.3067 40.4529 59.8264 40.1871 60.8 40.064C68.224 39.1253 70.3004 29.056 71.04 26.368C71.552 27.0507 72.6613 32.6827 74.0267 35.712C74.5858 36.9525 76.3307 39.2107 80.6827 39.2107C85.0347 39.2107 88.3484 30.2791 89.2587 27.4347C92.8 35.2 84.4373 50.1644 78.2933 50.304C71.8933 50.4495 69.9307 46.5493 68.096 44.672C65.92 53.2053 57.6711 53.3476 54.5707 53.2053Z" fill="#FFE88A"/>
</svg>
